<?xml version="1.0" standalone="no"?>
<!DOCTYPE svg PUBLIC "-//W3C//DTD SVG 20010904//EN"
 "http://www.w3.org/TR/2001/REC-SVG-20010904/DTD/svg10.dtd">
<svg version="1.0" xmlns="http://www.w3.org/2000/svg"
 width="512.000000pt" height="512.000000pt" viewBox="0 0 512.000000 512.000000"
 preserveAspectRatio="xMidYMid meet">

<g transform="translate(0.000000,512.000000) scale(0.100000,-0.100000)"
fill="#ffffff" stroke="none">
<path d="M1073 4831 c-142 -52 -148 -62 -498 -761 l-305 -611 0 -1339 c0 -913
4 -1357 11 -1392 19 -94 85 -214 159 -288 75 -74 194 -140 288 -159 75 -15
3590 -15 3664 0 97 20 211 83 286 158 76 75 142 194 161 289 7 35 11 479 11
1392 l0 1339 -305 612 c-337 673 -347 689 -464 746 l-56 28 -1450 2 c-1400 2
-1452 2 -1502 -16z m3120 -778 l237 -473 -1870 0 -1870 0 231 463 c127 254
236 468 241 475 8 9 296 12 1402 10 l1391 -3 238 -472z m337 -2024 c0 -927 -3
-1232 -12 -1263 -16 -55 -109 -148 -164 -164 -60 -17 -3528 -17 -3588 0 -55
16 -148 109 -164 164 -9 31 -12 336 -12 1263 l0 1221 1970 0 1970 0 0 -1221z"/>
<path d="M2495 2706 c-37 -17 -70 -52 -84 -89 -7 -19 -11 -187 -11 -490 l0
-461 -197 196 c-141 139 -207 198 -228 203 -16 4 -35 8 -42 10 -25 8 -89 -19
-119 -49 -30 -30 -57 -94 -49 -119 2 -7 6 -25 10 -42 5 -22 97 -121 348 -373
188 -189 354 -350 369 -358 35 -18 101 -18 136 0 15 8 181 169 369 358 251
252 343 351 348 373 4 17 8 35 10 41 9 28 -19 96 -51 123 -55 49 -127 58 -189
23 -11 -6 -103 -94 -205 -196 l-185 -186 -5 474 c-5 460 -6 475 -26 502 -11
15 -32 37 -46 47 -34 25 -113 32 -153 13z"/>
</g>
</svg>
